<svg width="6" height="10" viewBox="0 0 6 10" fill="none" xmlns="http://www.w3.org/2000/svg">
<path d="M0 5.00288C0 5.0758 0.0143149 5.14489 0.0429447 5.21013C0.0756646 5.27922 0.120654 5.33871 0.177914 5.3886L5.04294 9.84456C5.15337 9.94819 5.28425 10 5.43558 10C5.54192 10 5.63804 9.97697 5.72393 9.93091C5.80982 9.88486 5.8773 9.82153 5.92638 9.74093C5.97546 9.66417 6 9.5759 6 9.47611C6 9.3341 5.94683 9.20936 5.84049 9.1019L1.03681 4.692V5.308L5.84049 0.8981C5.94683 0.794473 6 0.669737 6 0.523891C6 0.424103 5.97546 0.333909 5.92638 0.25331C5.8773 0.17655 5.80982 0.115141 5.72393 0.0690842C5.63804 0.0230277 5.54192 0 5.43558 0C5.35787 0 5.28425 0.0134331 5.21472 0.0402993C5.14928 0.0671655 5.08998 0.105546 5.03681 0.15544L0.177914 4.6114C0.0593046 4.72654 0 4.85703 0 5.00288Z" fill="#5C5C64"/>
</svg>
