<svg width="24" height="24" viewBox="0 0 24 24" fill="none" xmlns="http://www.w3.org/2000/svg">
<path fill-rule="evenodd" clip-rule="evenodd" d="M17.6843 12.1053C17.6843 12.2368 17.635 12.3849 17.5363 12.4836L12.2732 17.7467C12.1745 17.8454 12.0264 17.8947 11.8949 17.8947C11.6153 17.8947 11.3685 17.648 11.3685 17.3684V14.2105H6.84223C6.56263 14.2105 6.31592 13.9638 6.31592 13.6842V10.5263C6.31592 10.2467 6.56263 10 6.84223 10H11.3685V6.84211C11.3685 6.54606 11.5988 6.3158 11.8949 6.3158C12.0429 6.3158 12.1745 6.38159 12.2896 6.48027L17.5363 11.727C17.635 11.8257 17.6843 11.9737 17.6843 12.1053Z" fill="white"/>
<circle cx="12" cy="12" r="11.25" stroke="white" stroke-width="1.5"/>
</svg>
