<svg fill="currentColor" className="btn__icon" xmlns="http://www.w3.org/2000/svg">
<path fill="currentColor" d="M10.0002 6H11.0602C11.6535 6 11.9468 6.72 11.5268 7.14L8.46683 10.2C8.20683 10.46 7.78683 10.46 7.52683 10.2L4.46683 7.14C4.04683 6.72 4.34683 6 4.94016 6H6.00016V2.66667C6.00016 2.3 6.30016 2 6.66683 2H9.3335C9.70016 2 10.0002 2.3 10.0002 2.66667V6ZM4.00016 13.3333C3.6335 13.3333 3.3335 13.0333 3.3335 12.6667C3.3335 12.3 3.6335 12 4.00016 12H12.0002C12.3668 12 12.6668 12.3 12.6668 12.6667C12.6668 13.0333 12.3668 13.3333 12.0002 13.3333H4.00016Z"/>
</svg>
