<svg width="16" height="16" viewBox="0 0 16 16" fill="none" xmlns="http://www.w3.org/2000/svg">
<path d="M0.594031 5.03309C0.572423 5.03304 0.550832 5.03189 0.52934 5.02966C0.372942 5.01253 0.22974 4.93405 0.131183 4.81146C0.0326254 4.68886 -0.0132293 4.53219 0.00368898 4.37583C0.0418159 4.0247 0.0877557 3.68857 0.144634 3.34681V3.34088C0.419335 1.7933 1.79347 0.420028 3.34229 0.146375H3.34823C3.69012 0.0895196 4.02702 0.0435983 4.37953 0.00548668C4.45794 -0.00474994 4.53761 0.000771907 4.61385 0.0217282C4.6901 0.0426844 4.76139 0.0786529 4.82354 0.127523C4.88569 0.176393 4.93745 0.23718 4.97578 0.306316C5.01412 0.375453 5.03825 0.451546 5.04676 0.53013C5.05527 0.608715 5.048 0.688208 5.02536 0.763944C5.00272 0.83968 4.96518 0.910133 4.91493 0.971169C4.86469 1.03221 4.80275 1.08259 4.73276 1.11938C4.66277 1.15617 4.58614 1.17861 4.50735 1.18538C4.18015 1.221 3.86607 1.26379 3.54762 1.31659C3.03603 1.40656 2.52475 1.68677 2.10598 2.10537C1.68721 2.52398 1.40657 3.0363 1.31563 3.54456C1.26281 3.86257 1.21906 4.17621 1.18437 4.50453C1.16836 4.64984 1.09927 4.78413 0.990331 4.88167C0.881394 4.97921 0.740279 5.03313 0.594031 5.03309Z" fill="#161616"/>
<path d="M15.4068 5.03891C15.2603 5.03865 15.1191 4.98428 15.0103 4.88625C14.9015 4.78822 14.8328 4.65345 14.8174 4.50785C14.7817 4.18047 14.7389 3.86651 14.6861 3.54881C14.5942 3.04055 14.313 2.52948 13.8948 2.11088C13.4767 1.69228 12.9648 1.41175 12.4547 1.32147C12.1363 1.26836 11.8225 1.22557 11.495 1.19027C11.4162 1.18349 11.3396 1.16105 11.2696 1.12426C11.1996 1.08748 11.1377 1.03709 11.0874 0.976052C11.0372 0.915016 10.9996 0.844562 10.977 0.768826C10.9544 0.693091 10.9471 0.613598 10.9556 0.535013C10.9641 0.456429 10.9882 0.380335 11.0266 0.311199C11.0649 0.242062 11.1167 0.181276 11.1788 0.132406C11.241 0.0835357 11.3123 0.0475672 11.3885 0.026611C11.4648 0.00565472 11.5444 0.000132876 11.6228 0.0103695C11.9738 0.0481687 12.3104 0.0944025 12.6526 0.151257H12.6585C14.2073 0.424911 15.5815 1.79818 15.8552 3.34545V3.35138C15.9118 3.69282 15.958 4.02927 15.9962 4.3804C16.0047 4.45801 15.9979 4.53655 15.976 4.61151C15.9541 4.68647 15.9177 4.75638 15.8687 4.81723C15.8198 4.87809 15.7593 4.92869 15.6907 4.96614C15.6222 5.00359 15.5469 5.02715 15.4693 5.03548C15.4485 5.03778 15.4276 5.03893 15.4068 5.03891Z" fill="#161616"/>
<path d="M11.5585 16.0006C11.4072 15.9996 11.2619 15.9409 11.1524 15.8363C11.043 15.7318 10.9776 15.5895 10.9696 15.4384C10.9616 15.2873 11.0116 15.1389 11.1095 15.0234C11.2073 14.908 11.3456 14.8343 11.496 14.8173C11.8238 14.7817 12.1379 14.7389 12.4558 14.6861C12.9658 14.5952 13.4771 14.315 13.8958 13.8964C14.3146 13.4778 14.5952 12.967 14.6862 12.4572C14.739 12.1395 14.7818 11.8255 14.8174 11.4982C14.8385 11.3451 14.9185 11.2062 15.0404 11.1112C15.1623 11.0161 15.3165 10.9723 15.4702 10.9891C15.6239 11.0059 15.765 11.082 15.8635 11.2011C15.9619 11.3203 16.01 11.4731 15.9975 11.6272C15.9594 11.9783 15.9131 12.3144 15.8566 12.6562V12.6621C15.5831 14.2097 14.209 15.583 12.6601 15.8563H12.6542C12.3129 15.9129 11.976 15.9591 11.6245 15.9972C11.6013 16.0006 11.5798 16.0006 11.5585 16.0006Z" fill="#161616"/>
<path d="M4.44242 15.9949C4.42081 15.9949 4.39921 15.9936 4.37773 15.9912C4.02678 15.9534 3.6902 15.9071 3.34643 15.8503H3.34049C1.79323 15.5757 0.419097 14.2024 0.145333 12.6552V12.6492C0.087518 12.3078 0.0415782 11.9707 0.00345128 11.6202C-0.0134986 11.4637 0.0324424 11.3069 0.131168 11.1842C0.229893 11.0616 0.373315 10.9832 0.529884 10.9662C0.686452 10.9493 0.843341 10.9952 0.966037 11.0939C1.08873 11.1926 1.16719 11.3359 1.18414 11.4924C1.21976 11.8198 1.26258 12.1335 1.31539 12.4515C1.40633 12.961 1.6876 13.4721 2.10574 13.8907C2.52389 14.3093 3.03579 14.5895 3.54582 14.6801C3.86427 14.7332 4.17835 14.776 4.50555 14.8113C4.65651 14.8276 4.79549 14.9011 4.89391 15.0166C4.99233 15.1322 5.04272 15.2811 5.03472 15.4327C5.02671 15.5842 4.96093 15.727 4.85088 15.8316C4.74083 15.9361 4.59489 15.9946 4.44305 15.9949H4.44242Z" fill="#161616"/>
<path d="M14.1975 7.52621C12.7208 5.34104 10.3848 4.05493 8.04403 4.05493H7.95496C5.61391 4.05493 3.27817 5.34135 1.80153 7.52621C1.70638 7.66647 1.65552 7.83204 1.65552 8.00151C1.65552 8.17098 1.70638 8.33655 1.80153 8.47681C3.27817 10.6617 5.61422 11.9478 7.95496 11.9478H8.04403C10.3851 11.9478 12.7208 10.6614 14.1975 8.47681C14.2928 8.33662 14.3437 8.17102 14.3437 8.00151C14.3437 7.83201 14.2928 7.66641 14.1975 7.52621ZM5.13451 9.99628C4.25983 9.49947 3.50343 8.81883 2.91752 8.00136C3.51662 7.17259 4.27915 6.48564 5.13451 6.00643C5.59013 5.75011 6.07686 5.55346 6.58271 5.42133C6.11998 5.67498 5.73398 6.04831 5.46511 6.50224C5.19623 6.95616 5.05437 7.47399 5.05437 8.00151C5.05437 8.52904 5.19623 9.04686 5.46511 9.50079C5.73398 9.95471 6.11998 10.328 6.58271 10.5817C6.07701 10.4493 5.5904 10.2525 5.13482 9.99628H5.13451ZM7.5465 6.75867C7.35495 6.81631 7.18111 6.92148 7.04117 7.06437C6.90123 7.20726 6.79974 7.38322 6.74615 7.57588C6.71352 7.68543 6.63927 7.77786 6.53931 7.83338C6.43935 7.88889 6.32162 7.90308 6.21132 7.8729C6.10103 7.84273 6.00693 7.77058 5.94919 7.67192C5.89144 7.57326 5.87463 7.45592 5.90236 7.34502C5.99575 7.0091 6.17272 6.70228 6.41677 6.45319C6.66083 6.2041 6.96401 6.02085 7.29806 5.92053C7.35337 5.9032 7.41158 5.89703 7.4693 5.90239C7.52702 5.90774 7.5831 5.9245 7.63428 5.95171C7.68546 5.97891 7.73073 6.01601 7.76744 6.06084C7.80416 6.10568 7.8316 6.15737 7.84816 6.21289C7.86473 6.26842 7.87009 6.32669 7.86393 6.3843C7.85777 6.44192 7.84023 6.49774 7.81231 6.54852C7.78438 6.5993 7.74665 6.64403 7.70128 6.6801C7.65592 6.71618 7.60384 6.74288 7.54807 6.75867H7.5465ZM10.8639 9.99628C10.4084 10.2526 9.92173 10.4493 9.41597 10.5814C9.87862 10.3277 10.2645 9.95438 10.5334 9.50049C10.8022 9.0466 10.944 8.52883 10.944 8.00136C10.944 7.47389 10.8022 6.95611 10.5334 6.50222C10.2645 6.04833 9.87862 5.67501 9.41597 5.42133C9.92182 5.55346 10.4085 5.75011 10.8642 6.00643C11.7195 6.48564 12.4821 7.17259 13.0812 8.00136C12.4821 8.83013 11.7192 9.51707 10.8639 9.99628Z" fill="#161616"/>
</svg>
