<svg fill="currentColor" className="btn__icon" xmlns="http://www.w3.org/2000/svg">
<path fill="currentColor" d="M16 7.2587V12.5916C15.9791 13.1607 15.738 13.6983 15.3291 14.0869C14.9203 14.4755 14.3771 14.6835 13.8182 14.6655H2.18182C1.62289 14.6835 1.07967 14.4755 0.670857 14.0869C0.262042 13.6983 0.0208589 13.1607 0 12.5916V7.2587C0 7.06226 0.0766231 6.87386 0.213013 6.73496C0.349403 6.59605 0.534388 6.51802 0.727273 6.51802C0.920157 6.51802 1.10514 6.59605 1.24153 6.73496C1.37792 6.87386 1.45455 7.06226 1.45455 7.2587V12.5916C1.47815 12.7665 1.56676 12.9254 1.70209 13.0357C1.83741 13.1459 2.00914 13.1991 2.18182 13.1841H13.8182C13.9909 13.1991 14.1626 13.1459 14.2979 13.0357C14.4332 12.9254 14.5219 12.7665 14.5455 12.5916V7.2587C14.5455 7.06226 14.6221 6.87386 14.7585 6.73496C14.8949 6.59605 15.0798 6.51802 15.2727 6.51802C15.4656 6.51802 15.6506 6.59605 15.787 6.73496C15.9234 6.87386 16 7.06226 16 7.2587ZM6.24727 4.91074L7.27273 3.85897V10.2214C7.27273 10.4179 7.34935 10.6063 7.48574 10.7452C7.62213 10.8841 7.80712 10.9621 8 10.9621C8.19289 10.9621 8.37787 10.8841 8.51426 10.7452C8.65065 10.6063 8.72727 10.4179 8.72727 10.2214V3.85897L9.75273 4.91074C9.82034 4.98016 9.90077 5.03526 9.9894 5.07287C10.078 5.11047 10.1731 5.12983 10.2691 5.12983C10.3651 5.12983 10.4602 5.11047 10.5488 5.07287C10.6374 5.03526 10.7178 4.98016 10.7855 4.91074C10.8529 4.84153 10.9062 4.75945 10.9424 4.66921C10.9786 4.57897 10.9969 4.48233 10.9964 4.38486C10.9969 4.28738 10.9786 4.19075 10.9424 4.1005C10.9062 4.01026 10.8529 3.92818 10.7855 3.85897L8.51636 1.54805C8.39183 1.42147 8.22647 1.34515 8.05091 1.33325H7.91273C7.76722 1.35086 7.63034 1.41282 7.52 1.51102H7.48364L5.21455 3.85897C5.0776 3.99845 5.00066 4.18761 5.00066 4.38486C5.00066 4.5821 5.0776 4.77127 5.21455 4.91074C5.35149 5.05021 5.53724 5.12857 5.73091 5.12857C5.92458 5.12857 6.11033 5.05021 6.24727 4.91074Z" />
</svg>
