<svg fill="currentColor" className="btn__icon" xmlns="http://www.w3.org/2000/svg">
<path fill="currentColor"  d="M8.5 2.5C8.5 2.22386 8.27614 2 8 2C7.72386 2 7.5 2.22386 7.5 2.5V7.5H2.5C2.22386 7.5 2 7.72386 2 8C2 8.27614 2.22386 8.5 2.5 8.5H7.5V13.5C7.5 13.7761 7.72386 14 8 14C8.27614 14 8.5 13.7761 8.5 13.5V8.5H13.5C13.7761 8.5 14 8.27614 14 8C14 7.72386 13.7761 7.5 13.5 7.5H8.5V2.5Z" />
<path fill="currentColor"  d="M8 2.25C7.86193 2.25 7.75 2.36193 7.75 2.5V7.75H2.5C2.36193 7.75 2.25 7.86193 2.25 8C2.25 8.13807 2.36193 8.25 2.5 8.25H7.75V13.5C7.75 13.6381 7.86193 13.75 8 13.75C8.13807 13.75 8.25 13.6381 8.25 13.5V8.25H13.5C13.6381 8.25 13.75 8.13807 13.75 8C13.75 7.86193 13.6381 7.75 13.5 7.75H8.25V2.5C8.25 2.36193 8.13807 2.25 8 2.25ZM7.25 2.5C7.25 2.08579 7.58579 1.75 8 1.75C8.41421 1.75 8.75 2.08579 8.75 2.5V7.25H13.5C13.9142 7.25 14.25 7.58579 14.25 8C14.25 8.41421 13.9142 8.75 13.5 8.75H8.75V13.5C8.75 13.9142 8.41421 14.25 8 14.25C7.58579 14.25 7.25 13.9142 7.25 13.5V8.75H2.5C2.08579 8.75 1.75 8.41421 1.75 8C1.75 7.58579 2.08579 7.25 2.5 7.25H7.25V2.5Z" />
</svg>
