<svg width="18" height="18" viewBox="0 0 18 18" fill="none" xmlns="http://www.w3.org/2000/svg">
<g id="Buttons/Premium ">
<g id="Premium">
<path id="Subtract" fill-rule="evenodd" clip-rule="evenodd" d="M9 0C13.9706 0 18 4.02944 18 9C18 13.9706 13.9706 18 9 18C4.02944 18 0 13.9706 0 9C0 4.02944 4.02944 0 9 0ZM4.60395 10.3566L4.00137 6.31707C3.9905 6.22618 4.0455 6.14232 4.12421 6.12977C4.15231 6.12529 4.18093 6.1305 4.20647 6.14474L6.54236 7.44764C6.60857 7.48458 6.68825 7.4579 6.72709 7.3858L8.7784 3.5784C8.82038 3.50049 8.9091 3.47662 8.97657 3.5251C8.99405 3.53766 9.009 3.55441 9.0204 3.57423L11.2174 7.39286C11.2569 7.4616 11.3341 7.4864 11.3987 7.4511L13.7946 6.14171C13.8664 6.10246 13.9522 6.13787 13.9862 6.22081C13.9982 6.25015 14.0025 6.28292 13.9986 6.31507L13.3833 10.357C13.3733 10.439 13.3125 10.5 13.2408 10.5H4.74647C4.67461 10.5 4.61378 10.4388 4.60395 10.3566ZM5.4999 11.9C5.16853 11.9 4.8999 12.1687 4.8999 12.5C4.8999 12.8314 5.16853 13.1 5.4999 13.1H12.4999C12.8313 13.1 13.0999 12.8314 13.0999 12.5C13.0999 12.1687 12.8313 11.9 12.4999 11.9H5.4999Z" fill="#47474F"/>
</g>
</g>
</svg>
