<svg fill="currentColor" className="btn__icon"  xmlns="http://www.w3.org/2000/svg">
<path fill="currentColor" d="M7.81818 2.18182V0L4.90909 2.90909L7.81818 5.81818V3.63636C10.2251 3.63636 12.1818 5.59273 12.1818 8C12.1818 8.73455 12 9.43273 11.6724 10.0367L12.7342 11.0982C13.3015 10.2036 13.6364 9.14218 13.6364 8C13.6364 4.78545 11.0324 2.18182 7.81818 2.18182ZM7.81818 12.3636C5.41091 12.3636 3.45455 10.4073 3.45455 8C3.45455 7.26545 3.63636 6.56764 3.96327 5.96364L2.90145 4.90218C2.33418 5.79673 2 6.85818 2 8C2 11.2149 4.60327 13.8182 7.81818 13.8182V16L10.7273 13.0909L7.81818 10.1818V12.3636Z" />
</svg>
