<svg width="48" height="48" viewBox="0 0 48 48" fill="none" xmlns="http://www.w3.org/2000/svg">
<path d="M24 0C10.752 0 0 10.752 0 24C0 37.248 10.752 48 24 48C37.248 48 48 37.248 48 24C48 10.752 37.248 0 24 0Z" fill="white"/>
<path d="M24 7.19995C27.984 7.19995 31.2 10.416 31.2 14.4C31.2 18.384 27.984 21.6 24 21.6C20.016 21.6 16.8 18.384 16.8 14.4C16.8 10.416 20.016 7.19995 24 7.19995Z" fill="#ADADB6"/>
<path d="M24.0001 41.2799C18.0001 41.2799 12.6961 38.2079 9.6001 33.5519C9.6721 28.7759 19.2001 26.1599 24.0001 26.1599C28.7761 26.1599 38.3281 28.7759 38.4001 33.5519C35.3041 38.2079 30.0001 41.2799 24.0001 41.2799Z" fill="#ADADB6"/>
</svg>
