<svg width="6" height="10" viewBox="0 0 6 10" fill="none" xmlns="http://www.w3.org/2000/svg">
<path d="M6 4.99712C6 4.9242 5.98568 4.85511 5.95706 4.78987C5.92434 4.72078 5.87935 4.66129 5.82209 4.6114L0.957055 0.15544C0.846626 0.0518135 0.715746 0 0.564417 0C0.458078 0 0.361963 0.0230282 0.276074 0.0690846C0.190184 0.115141 0.122699 0.178469 0.0736196 0.259067C0.0245399 0.335828 0 0.424103 0 0.523892C0 0.665899 0.0531697 0.790635 0.159509 0.8981L4.65519 5L0.159509 9.1019C0.0531697 9.20553 0 9.33026 0 9.47611C0 9.5759 0.0245399 9.66609 0.0736196 9.74669C0.122699 9.82345 0.190184 9.88486 0.276074 9.93092C0.361963 9.97697 0.458078 10 0.564417 10C0.642127 10 0.715746 9.98657 0.785276 9.9597C0.850716 9.93283 0.910021 9.89445 0.96319 9.84456L5.82209 5.3886C5.9407 5.27346 6 5.14297 6 4.99712Z" fill="#161616"/>
</svg>
