<svg width="755" height="200" viewBox="0 0 755 200" fill="none" xmlns="http://www.w3.org/2000/svg">
<path d="M250.872 5.92488C238.086 12.0907 228.505 22.4947 221.502 34.2736C210.248 15.3508 192.346 0 165.245 0C138.143 0 104.876 23.0191 104.876 61.8852C104.876 100.751 137.718 119.901 153.99 130.432C171.382 141.687 201.049 162.14 221.502 199.986C241.97 162.126 271.637 141.673 289.015 130.432C301.233 122.509 322.821 110.007 332.799 87.5549L250.872 5.92488ZM249.894 89.7945V15.8327L323.855 89.7945H249.894Z" fill="#26AEBA"/>
<path d="M249.894 89.7945V15.8328L323.855 89.7945H249.894Z" fill="white"/>
<path d="M353.905 157.633H358.157C361.97 157.633 365.103 154.94 366.676 150.688L401.417 53.3948C402.764 50.0355 400.751 46.8888 397.378 46.8888H387.512V23.3452H462.168L504.096 152.02C504.989 154.94 508.575 157.619 511.268 157.619H515.974V180.255H442.891V157.619H462.168L454.103 132.062H403.217L401.417 137.449C396.938 150.447 398.058 157.619 408.816 157.619H416.669V180.255H353.905V157.619V157.633ZM447.611 110.56L430.347 55.195H429.893L410.616 110.56H447.611Z" fill="#161616"/>
<path d="M531.013 157.633H538.639C541.772 157.633 545.145 153.593 545.145 150.914V53.3948C545.145 50.7017 541.786 46.8888 538.639 46.8888H531.013V23.3452H602.296C644.224 23.3452 667.087 38.1432 667.087 73.1113C667.087 108.079 642.877 122.651 600.737 122.651H587.739V157.619H605.896V180.255H531.027V157.619L531.013 157.633ZM600.056 99.5748C618.894 99.5748 623.813 88.8165 623.813 73.7917C623.813 58.7669 618.88 48.4622 600.056 48.4622H587.059V99.5748H600.056Z" fill="#161616"/>
<path d="M680.539 157.633H689.724C692.643 157.633 696.003 153.593 696.003 150.914V53.3948C696.003 50.7017 692.643 46.8888 689.724 46.8888H680.539V23.3452H754.288V46.8888H744.876C741.956 46.8888 738.823 50.7017 738.823 53.3948V150.914C738.823 153.607 741.956 157.633 744.876 157.633H754.288V180.269H680.539V157.633Z" fill="#161616"/>
<path d="M0 157.633H9.18497C12.1049 157.633 15.4642 153.593 15.4642 150.914V53.3948C15.4642 50.7017 12.1049 46.8888 9.18497 46.8888H0V23.3452H73.7491V46.8888H64.3373C61.4174 46.8888 58.2849 50.7017 58.2849 53.3948V150.914C58.2849 153.607 61.4174 157.633 64.3373 157.633H73.7491V180.269H0V157.633Z" fill="#161616"/>
</svg>
