<svg width="890" height="200" viewBox="0 0 890 200" fill="none" xmlns="http://www.w3.org/2000/svg">
<path d="M250.89 5.9253C238.104 12.0916 228.521 22.4963 221.519 34.276C210.263 15.3519 192.36 0 165.257 0C138.153 0 104.884 23.0208 104.884 61.8896C104.884 100.758 137.728 119.909 154.001 130.442C171.395 141.697 201.064 162.152 221.519 200C241.988 162.138 271.657 141.683 289.036 130.442C301.255 122.518 322.844 110.015 332.823 87.5611L250.89 5.9253ZM249.912 89.8008V15.8339L323.879 89.8008H249.912Z" fill="#0062C5"/>
<path d="M249.911 89.8007V15.8337L323.878 89.8007H249.911Z" fill="white"/>
<path d="M384.875 180.296H355.05V132.1H383.529L387.115 154.299C391.594 155.872 396.981 156.765 405.954 156.765C421.873 156.765 429.499 150.259 429.499 138.153C429.499 123.354 414.261 121.341 394.755 115.728C373.01 109.675 356.638 98.6889 356.638 69.3175C356.638 36.8135 379.063 21.334 412.46 21.334C424.793 21.334 433.086 22.227 438.472 23.3469H464.923V67.2905H436.899L433.312 48.4514C429.272 47.1048 424.127 45.9849 416.5 45.9849C401.928 45.9849 393.862 51.5842 393.862 63.2505C393.862 77.1565 407.315 79.8357 423.007 84.1024C455.284 92.6218 469.644 102.715 469.644 131.632C469.644 164.59 449.912 182.295 410.008 182.295C399.688 182.295 391.623 181.402 384.904 180.282L384.875 180.296Z" fill="#161616"/>
<path d="M484.415 157.644H493.601C496.521 157.644 499.88 153.604 499.88 150.911V53.3985C499.88 50.7052 496.521 46.8921 493.601 46.8921H484.415V23.3468H558.169V46.8921H548.757C545.837 46.8921 542.704 50.7052 542.704 53.3985V150.925C542.704 153.618 545.837 157.658 548.757 157.658H558.169V180.296H484.415V157.658V157.644Z" fill="#161616"/>
<path d="M572.075 102.715C572.075 50.4785 601.673 21.334 650.096 21.334C661.536 21.334 670.721 22.4538 675.654 23.3469H705.692V74.9168H677.894L673.642 52.052C669.389 50.4785 662.656 49.1318 654.59 49.1318C632.845 49.1318 617.38 63.7041 617.38 100.914C617.38 138.125 627.912 155.617 650.564 155.617C658.417 155.617 662.67 154.951 667.149 153.604V126.033H653.697V103.168H719.159V126.26H714.679C711.546 126.26 708.399 130.3 708.399 132.979V180.282H686.655C686.655 180.282 684.642 175.576 680.375 175.576C672.309 179.616 661.536 182.309 647.871 182.309C598.767 182.309 572.089 154.285 572.089 102.715H572.075Z" fill="#161616"/>
<path d="M732.597 157.644H740.223C743.356 157.644 746.73 153.604 746.73 150.911V53.3984C746.73 50.7051 743.37 46.892 740.223 46.892H732.597V23.3467H788.419L844.015 115.26H844.681V46.8778H828.762V23.3325H889.064V46.8778H881.891C878.971 46.8778 875.612 50.6909 875.612 53.3843V180.282H839.068L778.085 79.8496H777.419V157.644H793.792V180.282H732.583V157.644H732.597Z" fill="#161616"/>
<path d="M0 157.644H9.18563C12.1057 157.644 15.4653 153.604 15.4653 150.911V53.3985C15.4653 50.7052 12.1057 46.8921 9.18563 46.8921H0V23.3468H73.7543V46.8921H64.3419C61.4218 46.8921 58.289 50.7052 58.289 53.3985V150.925C58.289 153.618 61.4218 157.658 64.3419 157.658H73.7543V180.296H0V157.658V157.644Z" fill="#161616"/>
</svg>
