<svg width="777" height="200" viewBox="0 0 777 200" fill="none" xmlns="http://www.w3.org/2000/svg">
<path fill-rule="evenodd" clip-rule="evenodd" d="M247.231 89.8014V15.839L320.42 89.8014H247.231ZM248.201 5.92363C235.552 12.0925 226.063 22.4897 219.133 34.2745C207.994 15.3498 190.283 0 163.463 0C136.629 0 103.731 23.0141 103.731 61.8898C103.731 101.249 136.231 119.904 152.327 130.44C169.533 141.691 198.889 162.146 219.133 200C239.382 162.146 268.736 141.691 285.946 130.44C298.038 122.519 319.402 110.01 329.267 87.5687L248.201 5.92363Z" fill="#4D90FE"/>
<path fill-rule="evenodd" clip-rule="evenodd" d="M247.231 89.8014V15.839L320.42 89.8014H247.231Z" fill="white"/>
<path fill-rule="evenodd" clip-rule="evenodd" d="M0 157.189H9.07762C11.9558 157.189 15.2771 153.162 15.2771 150.476V53.145C15.2771 50.4589 11.9558 46.6558 9.07762 46.6558H0V23.1611H72.8412V46.6558H63.5433C60.6638 46.6558 57.5655 50.4589 57.5655 53.145V150.476C57.5655 153.162 60.6638 157.189 63.5433 157.189H72.8412V179.788H0V157.189Z" fill="#161616"/>
<path fill-rule="evenodd" clip-rule="evenodd" d="M340.161 157.565H349.328C352.234 157.565 355.588 153.497 355.588 150.787V52.4949C355.588 49.7832 352.234 45.9419 349.328 45.9419H340.161V22.2162H413.72V45.9419H404.33C401.423 45.9419 398.293 49.7832 398.293 52.4949V150.787C398.293 153.497 401.423 157.565 404.33 157.565H413.72V180.387H340.161V157.565Z" fill="#161616"/>
<path fill-rule="evenodd" clip-rule="evenodd" d="M429.148 157.565H436.751C439.88 157.565 443.235 153.497 443.235 150.787V52.4949C443.235 49.7832 439.88 45.9419 436.751 45.9419H429.148V22.2162H503.38L527.75 113.955H528.42L553.016 22.2162H627.021V45.9419H619.196C616.29 45.9419 612.937 49.7832 612.937 52.4949V150.787C612.937 153.497 616.29 157.565 619.196 157.565H627.021V180.387H556.816V157.565H570.901V54.3021H570.232L535.575 180.387H508.745L474.535 54.3021H473.866V157.565H488.621V180.387H429.148V157.565Z" fill="#161616"/>
<path fill-rule="evenodd" clip-rule="evenodd" d="M630.159 102.206C630.159 49.5577 659.672 20.1833 707.968 20.1833C719.37 20.1833 728.537 21.3131 733.456 22.216H763.417V74.1863H735.692L731.443 51.1396C727.196 49.5577 720.487 48.2012 712.439 48.2012C690.751 48.2012 675.324 62.889 675.324 100.398C675.324 136.326 685.832 155.531 708.414 155.531C716.24 155.531 720.487 154.853 724.96 153.498V125.706H711.545V102.658H776.831V125.931H772.36C769.229 125.931 766.1 129.998 766.1 132.71V180.386H744.412C744.412 180.386 742.399 175.642 738.15 175.642C730.102 179.709 719.37 182.42 705.731 182.42C656.766 182.42 630.159 154.176 630.159 102.206Z" fill="#161616"/>
</svg>
