<svg width="791" height="200" viewBox="0 0 791 200" fill="none" xmlns="http://www.w3.org/2000/svg">
<path fill-rule="evenodd" clip-rule="evenodd" d="M247.99 5.925C235.348 12.0938 225.864 22.4909 218.937 34.2757C207.804 15.3511 190.103 0 163.296 0C136.477 0 103.597 23.0154 103.597 61.8908C103.597 101.249 136.079 119.905 152.167 130.441C169.364 141.69 198.704 162.147 218.937 200C239.176 162.147 268.514 141.69 285.715 130.441C297.8 122.52 319.154 110.011 329.013 87.5695L247.99 5.925Z" fill="#E5322D"/>
<path fill-rule="evenodd" clip-rule="evenodd" d="M247.021 89.802V15.8401L320.171 89.802H247.021Z" fill="white"/>
<path fill-rule="evenodd" clip-rule="evenodd" d="M0 157.2H9.06863C11.9438 157.2 15.262 153.174 15.262 150.491V53.2058C15.262 50.5226 11.9438 46.7209 9.06863 46.7209H0V23.2378H72.7677V46.7209H63.479C60.6038 46.7209 57.5071 50.5226 57.5071 53.2058V150.491C57.5071 153.174 60.6038 157.2 63.479 157.2H72.7677V179.788H0V157.2Z" fill="#161616"/>
<path fill-rule="evenodd" clip-rule="evenodd" d="M419.35 99.2765C437.927 99.2765 442.796 88.5421 442.796 73.558C442.796 58.7966 437.927 48.2861 419.35 48.2861H406.521V99.2765H419.35ZM351.227 157.2H358.748C361.843 157.2 365.161 153.174 365.161 150.49V53.2061C365.161 50.5228 361.843 46.7212 358.748 46.7212H351.227V23.238H421.562C462.924 23.238 485.481 37.9995 485.481 72.8862C485.481 106.881 461.595 122.31 420.013 122.31H407.185V157.2H425.1V179.787H351.227V157.2Z" fill="#161616"/>
<path fill-rule="evenodd" clip-rule="evenodd" d="M565.325 156.081C593.195 156.081 606.906 139.308 606.906 101.737C606.906 64.388 593.416 48.2856 565.325 48.2856H554.931V156.081H565.325ZM498.972 157.199H506.493C509.589 157.199 512.905 153.174 512.905 150.49V53.2056C512.905 50.5223 509.589 46.7207 506.493 46.7207H498.972V23.2375H566.431C621.505 23.2375 650.258 47.3911 650.258 100.618C650.258 152.951 621.062 179.788 565.324 179.788H498.972V157.199Z" fill="#161616"/>
<path fill-rule="evenodd" clip-rule="evenodd" d="M664.413 157.2H671.931C675.028 157.2 678.346 153.174 678.346 150.491V53.2058C678.346 50.5226 675.028 46.7209 671.931 46.7209H664.413V23.2378H790.262V71.545H765.493L761.73 48.5098H720.37V92.3434H740.496L742.268 77.5834H765.048V131.929H742.268L740.496 116.497H720.37V157.2H738.287V179.788H664.413V157.2Z" fill="#161616"/>
</svg>
