<svg width="851" height="200" viewBox="0 0 851 200" fill="none" xmlns="http://www.w3.org/2000/svg">
<g clip-path="url(#clip0_5375_3090)">
<path d="M248.197 5.92488C235.548 12.0907 226.068 22.4947 219.141 34.2736C208.006 15.3508 190.295 0 163.483 0C136.67 0 103.758 23.0191 103.758 61.8852C103.758 100.751 136.25 119.901 152.348 130.432C169.555 141.687 198.905 162.14 219.141 199.986C239.39 162.126 268.741 141.673 285.933 130.432C298.021 122.509 319.379 110.007 329.251 87.5549L248.197 5.92488ZM247.229 89.7945V15.8327L320.402 89.7945H247.229Z" fill="#FF801F"/>
<path d="M247.229 89.7945V15.8327L320.403 89.7945H247.229Z" fill="white"/>
<path d="M350.58 157.633H358.125C361.224 157.633 364.562 153.593 364.562 150.914V53.3948C364.562 50.7016 361.238 46.8887 358.125 46.8887H350.58V23.3452H476.775V71.7647H451.94L448.168 48.6747H406.687V92.6152H426.867L428.648 77.8172H451.491V132.289H428.648L426.867 116.825H406.687V157.619H424.651V180.255H350.566V157.619L350.58 157.633Z" fill="#161616"/>
<path d="M492.299 157.633H501.386C504.275 157.633 507.598 153.593 507.598 150.914V53.3948C507.598 50.7016 504.275 46.8887 501.386 46.8887H492.299V23.3452H565.262V46.8887H555.95C553.061 46.8887 549.962 50.7016 549.962 53.3948V150.914C549.962 153.607 553.061 157.633 555.95 157.633H565.262V180.269H492.299V157.633Z" fill="#161616"/>
<path d="M580.351 157.633H587.895C590.995 157.633 594.332 153.593 594.332 150.914V53.3948C594.332 50.7016 591.009 46.8887 587.895 46.8887H580.351V23.3452H655.978V46.8887H636.458V155.833H675.484L679.032 125.344H705.648V180.269H580.337V157.633H580.351Z" fill="#161616"/>
<path d="M720.961 157.633H728.506C731.605 157.633 734.943 153.593 734.943 150.914V53.3948C734.943 50.7016 731.619 46.8887 728.506 46.8887H720.961V23.3452H848.489V69.9787H823.653L819.881 48.6889H777.082V88.5897H797.71L799.491 74.9114H822.111V126.251H799.491L797.71 112.346H777.082V155.833H820.989L824.537 131.169H850.704V180.269H720.961V157.633Z" fill="#161616"/>
<path d="M0 157.633H9.08704C11.9758 157.633 15.2993 153.593 15.2993 150.914V53.3948C15.2993 50.7016 11.9758 46.8887 9.08704 46.8887H0V23.3452H72.9628V46.8887H63.6514C60.7626 46.8887 57.6635 50.7016 57.6635 53.3948V150.914C57.6635 153.607 60.7626 157.633 63.6514 157.633H72.9628V180.269H0V157.633Z" fill="#161616"/>
</g>
<defs>
<clipPath id="clip0_5375_3090">
<rect width="850.704" height="200" fill="white"/>
</clipPath>
</defs>
</svg>
